<svg width="57" height="56" viewBox="0 0 57 56" fill="none" xmlns="http://www.w3.org/2000/svg">
<rect x="0.5" width="56" height="56" rx="28" fill="#E8F7FC"/>
<mask id="mask0_48_8651" style="mask-type:alpha" maskUnits="userSpaceOnUse" x="12" y="12" width="33" height="32">
<rect x="12.5" y="12" width="32" height="32" fill="#D9D9D9"/>
</mask>
<g mask="url(#mask0_48_8651)">
<path d="M34.5001 26.6333C34.1223 26.6333 33.8057 26.5055 33.5501 26.2499C33.2946 25.9944 33.1668 25.6777 33.1668 25.2999C33.1668 24.9222 33.2946 24.6055 33.5501 24.3499C33.8057 24.0944 34.1223 23.9666 34.5001 23.9666C34.8779 23.9666 35.1946 24.0944 35.4501 24.3499C35.7057 24.6055 35.8335 24.9222 35.8335 25.2999C35.8335 25.6777 35.7057 25.9944 35.4501 26.2499C35.1946 26.5055 34.8779 26.6333 34.5001 26.6333ZM31.1668 23.3666L29.7668 21.9666C30.4112 21.3222 31.139 20.8277 31.9501 20.4833C32.7612 20.1388 33.6112 19.9666 34.5001 19.9666C35.389 19.9666 36.239 20.1388 37.0501 20.4833C37.8612 20.8277 38.589 21.3222 39.2335 21.9666L37.8335 23.3666C37.389 22.9222 36.8835 22.5777 36.3168 22.3333C35.7501 22.0888 35.1446 21.9666 34.5001 21.9666C33.8557 21.9666 33.2501 22.0888 32.6835 22.3333C32.1168 22.5777 31.6112 22.9222 31.1668 23.3666ZM28.3668 20.4999L26.9668 19.0999C27.9668 18.0999 29.1168 17.3277 30.4168 16.7833C31.7168 16.2388 33.0779 15.9666 34.5001 15.9666C35.9223 15.9666 37.2835 16.2388 38.5835 16.7833C39.8835 17.3277 41.0335 18.0999 42.0335 19.0999L40.6335 20.4999C39.8112 19.6777 38.8723 19.0499 37.8168 18.6166C36.7612 18.1833 35.6557 17.9666 34.5001 17.9666C33.3446 17.9666 32.2446 18.1888 31.2001 18.6333C30.1557 19.0777 29.2112 19.6999 28.3668 20.4999ZM39.1001 39.9999C36.3223 39.9999 33.5779 39.3944 30.8668 38.1833C28.1557 36.9722 25.689 35.2555 23.4668 33.0333C21.2446 30.8111 19.5279 28.3444 18.3168 25.6333C17.1057 22.9222 16.5001 20.1777 16.5001 17.3999C16.5001 16.9999 16.6335 16.6666 16.9001 16.3999C17.1668 16.1333 17.5001 15.9999 17.9001 15.9999H23.3001C23.6112 15.9999 23.889 16.1055 24.1335 16.3166C24.3779 16.5277 24.5223 16.7777 24.5668 17.0666L25.4335 21.7333C25.4779 22.0888 25.4668 22.3888 25.4001 22.6333C25.3335 22.8777 25.2112 23.0888 25.0335 23.2666L21.8001 26.5333C22.2446 27.3555 22.7723 28.1499 23.3835 28.9166C23.9946 29.6833 24.6668 30.4222 25.4001 31.1333C26.089 31.8222 26.8112 32.4611 27.5668 33.0499C28.3223 33.6388 29.1223 34.1777 29.9668 34.6666L33.1001 31.5333C33.3001 31.3333 33.5612 31.1833 33.8835 31.0833C34.2057 30.9833 34.5223 30.9555 34.8335 30.9999L39.4335 31.9333C39.7446 32.0222 40.0001 32.1833 40.2001 32.4166C40.4001 32.6499 40.5001 32.9111 40.5001 33.1999V38.5999C40.5001 38.9999 40.3668 39.3333 40.1001 39.5999C39.8335 39.8666 39.5001 39.9999 39.1001 39.9999ZM20.5335 23.9999L22.7335 21.7999L22.1668 18.6666H19.2001C19.3112 19.5777 19.4668 20.4777 19.6668 21.3666C19.8668 22.2555 20.1557 23.1333 20.5335 23.9999ZM32.4668 35.9333C33.3335 36.3111 34.2168 36.6111 35.1168 36.8333C36.0168 37.0555 36.9223 37.1999 37.8335 37.2666V34.3333L34.7001 33.6999L32.4668 35.9333Z" fill="#21ADE3"/>
</g>
</svg>
