<svg width="57" height="56" viewBox="0 0 57 56" fill="none" xmlns="http://www.w3.org/2000/svg">
<rect x="0.5" width="56" height="56" rx="28" fill="#E8F7FC"/>
<mask id="mask0_48_8676" style="mask-type:alpha" maskUnits="userSpaceOnUse" x="12" y="12" width="33" height="32">
<rect x="12.5" y="12" width="32" height="32" fill="#D9D9D9"/>
</mask>
<g mask="url(#mask0_48_8676)">
<path d="M23.1667 40V37.3333H17.8334C17.1001 37.3333 16.4723 37.0722 15.9501 36.55C15.4279 36.0278 15.1667 35.4 15.1667 34.6667V18.6667C15.1667 17.9333 15.4279 17.3056 15.9501 16.7833C16.4723 16.2611 17.1001 16 17.8334 16H39.1667C39.9001 16 40.5279 16.2611 41.0501 16.7833C41.5723 17.3056 41.8334 17.9333 41.8334 18.6667V34.6667C41.8334 35.4 41.5723 36.0278 41.0501 36.55C40.5279 37.0722 39.9001 37.3333 39.1667 37.3333H33.8334V40H23.1667ZM17.8334 34.6667H39.1667V18.6667H17.8334V34.6667Z" fill="#21ADE3"/>
</g>
</svg>
