<svg width="40" height="40" viewBox="0 0 40 40" fill="none" xmlns="http://www.w3.org/2000/svg">
<rect width="40" height="40" rx="20" fill="#F9FAFB"/>
<path d="M27.993 17.042C27.48 13.017 24.054 10 19.996 10C15.938 10 12.506 13.021 11.997 17.051L10.866 26H15.1C15.563 28.282 17.581 30 20 30C22.419 30 24.437 28.282 24.9 26H29.136L27.993 17.042ZM20 28C18.694 28 17.583 27.165 17.171 26H22.829C22.417 27.165 21.306 28 20 28ZM13.134 24L13.981 17.302C14.364 14.272 16.941 12 19.996 12C23.051 12 25.623 14.268 26.009 17.295L26.864 24H13.134Z" fill="#212337"/>
</svg>
